<svg width="1000" height="1000" viewBox="0 0 1000 1000" fill="none" xmlns="http://www.w3.org/2000/svg">
<path d="M302.171 8.69611L389.128 91.3044C421.736 121.739 439.128 163.044 439.128 208.696C439.128 252.174 456.519 293.478 486.954 323.913L497.823 334.783L597.823 10.8698" fill="#3E4784"/>
<path d="M6.52246 297.826L126.088 293.478C169.566 291.304 213.044 308.695 243.479 339.13C273.913 369.565 315.218 384.782 358.696 384.782H373.913L213.044 86.9564" fill="#3E4784"/>
<path d="M6.5218 710.869L86.9564 623.913C117.391 591.304 158.696 571.739 202.174 571.739C245.652 571.739 284.782 552.174 315.217 521.739L326.087 510.869L0 417.391" fill="#3E4784"/>
<path d="M302.174 997.826L295.653 878.26C293.479 834.782 308.696 791.304 339.131 758.695C367.392 728.261 384.783 684.782 382.609 643.478V628.261L86.957 795.652" fill="#3E4784"/>
<path d="M715.214 989.13L626.084 910.869C593.475 882.608 573.91 841.304 571.736 795.652C569.562 752.174 549.997 713.043 519.562 682.609L508.693 671.739L421.736 999.999" fill="#3E4784"/>
<path d="M997.826 686.955L878.261 695.651C834.783 699.999 791.304 684.782 758.696 654.347C726.087 626.086 684.783 610.868 641.305 613.042H626.087L800 904.347" fill="#3E4784"/>
<path d="M978.261 276.087L902.174 367.391C873.913 400 832.609 421.739 789.131 423.913C745.652 426.087 706.522 445.652 678.261 478.261L669.565 489.13L1000 567.391" fill="#3E4784"/>
<path d="M671.739 0L682.608 119.565C686.956 163.043 673.913 206.522 643.478 241.304C615.217 273.913 602.174 315.217 604.348 358.695L606.521 373.913L893.478 193.478" fill="#3E4784"/>
</svg>
